<?xml version="1.0" encoding="utf-8"?>
<!-- Generator: Adobe Illustrator 23.0.3, SVG Export Plug-In . SVG Version: 6.00 Build 0)  -->
<svg version="1.1" xmlns="http://www.w3.org/2000/svg" xmlns:xlink="http://www.w3.org/1999/xlink" x="0px" y="0px"
	 viewBox="0 0 4680 3120" style="enable-background:new 0 0 4680 3120;" xml:space="preserve">
<style type="text/css">
	.st0{fill:#8FC0FA;}
	.st1{fill:#C7DEFE;}
	.st2{fill:#01091C;}
	.st3{fill:#1B2B44;}
	.st4{fill:url(#SVGID_1_);}
	.st5{fill:url(#SVGID_2_);}
	.st6{fill:url(#SVGID_3_);}
	.st7{fill:url(#SVGID_4_);}
	.st8{fill:url(#SVGID_5_);}
	.st9{fill:#F6BA87;}
	.st10{fill:#F4A868;}
	.st11{fill:#F9C89A;}
	.st12{fill:#E32B2C;}
	.st13{fill:#CA1017;}
	.st14{fill:#A7452D;}
	.st15{fill:url(#SVGID_6_);}
	.st16{fill:#280B0B;}
	.st17{fill:#F8BC3E;}
	.st18{fill:#E07D32;}
	.st19{fill:#4F2D30;}
	.st20{fill:#F7A82D;}
	.st21{fill:none;stroke:#F7A82D;stroke-width:8;stroke-miterlimit:10;}
	.st22{fill:#946F6B;}
	.st23{fill:#8E000B;}
	.st24{fill:#683F3C;}
	.st25{fill:#82B2FC;}
	.st26{fill-rule:evenodd;clip-rule:evenodd;fill:#F8BC3E;}
	.st27{fill-rule:evenodd;clip-rule:evenodd;fill:#214A80;}
	.st28{fill-rule:evenodd;clip-rule:evenodd;fill:#82B2FC;}
	.st29{fill-rule:evenodd;clip-rule:evenodd;fill:#01091C;}
	.st30{fill:#214A80;}
	.st31{fill:#E27C17;}
	.st32{fill:#FFAA3F;}
	.st33{fill:#FFFFFF;}
	.st34{fill:#841F0B;}
	.st35{fill:#FFCAAC;}
	.st36{fill:#DFAF8F;}
	.st37{fill:#397CF2;}
	.st38{fill:#1864D3;}
	.st39{fill:#00479B;}
	.st40{fill:#A0000C;}
	.st41{fill:none;stroke:#A0000C;stroke-width:5;stroke-linecap:round;stroke-miterlimit:10;}
	.st42{fill:#1A2982;}
	.st43{fill-rule:evenodd;clip-rule:evenodd;fill:#FFCAAC;}
	.st44{fill-rule:evenodd;clip-rule:evenodd;fill:#464646;}
	.st45{fill-rule:evenodd;clip-rule:evenodd;fill:#555555;}
	.st46{fill-rule:evenodd;clip-rule:evenodd;fill:#4B3527;}
	.st47{fill:#4B3527;}
	.st48{fill-rule:evenodd;clip-rule:evenodd;fill:#695545;}
	.st49{fill-rule:evenodd;clip-rule:evenodd;fill:#DFAF8F;}
	.st50{fill:#F99B7A;}
	.st51{fill:#5E1212;}
	.st52{fill:#F3693F;}
	.st53{fill:#383838;}
</style>
<g id="Calque_1">
	<title>08</title>
	<path class="st0" d="M2878.4,274h-355.2c-3,0-5.5,3.5-5.5,7.9v240.6c0,4.3,2.4,7.9,5.5,7.9h37.7c-0.9,11.1-2.7,23.4-6.4,31.9
		c0,0,14.4-15.2,23.7-31.9h300.2c3,0,5.5-3.5,5.5-7.9V281.9C2883.7,277.5,2881.3,274,2878.4,274z"/>
	<path class="st1" d="M2892.5,256h-355.2c-3,0-5.5,3.5-5.5,7.9v240.5c0,4.3,2.4,7.9,5.5,7.9h37.7c-0.9,11.1-2.7,23.4-6.4,31.9
		c0,0,14.4-15.2,23.7-31.9h300.2c3,0,5.5-3.5,5.5-7.9V263.9C2897.8,259.5,2895.4,256,2892.5,256z"/>
	<g id="_08">
		<path class="st0" d="M2574.6,433.5h-355.2c-3,0-5.5,3.5-5.5,7.9V682c0,4.3,2.4,7.9,5.5,7.9h37.7c-0.9,11.1-2.7,23.4-6.4,31.9
			c0,0,14.4-15.2,23.7-31.9h300.2c3,0,5.5-3.5,5.5-7.9V441.4C2580,437.1,2577.6,433.5,2574.6,433.5z"/>
		<path class="st0" d="M2952.6,841.5h476.1c4,0,7.3,3.3,7.3,7.3v223.2c0,4-3.3,7.3-7.3,7.3h-50.5c1.2,10.3,3.6,21.7,8.6,29.7
			c0,0-19.2-14.1-31.8-29.7h-402.3c-4,0-7.3-3.3-7.3-7.3V848.8C2945.5,844.8,2948.6,841.5,2952.6,841.5z"/>
		<path class="st0" d="M670.7,2413.4H3996c23.8,0,43.1,19.3,43.1,43.1v4.2c0,23.8-19.3,43.1-43.1,43.1H670.7
			c-23.8,0-43.2-19.3-43.2-43.1v-4.2C627.6,2432.7,646.9,2413.4,670.7,2413.4z"/>
		<polygon class="st2" points="3586.1,2190.4 3579.3,2369.4 3540.6,2369.4 3533.9,2190.4 		"/>
		<polygon class="st3" points="3511.6,1991.4 3608.4,1991.4 3597.1,2205.6 3522.8,2205.6 		"/>
		<path class="st3" d="M3591.4,2025.2c22.2-4,45.4-6.6,67.9-9.2c26.6-3,54.1-6.1,81.4-11.6c99.5-20,174.5-83.8,200.7-170.5
			c13.7-45.5,12.9-96.5-2.4-143.7c-10.9-33.7-29.6-58.2-47.7-81.8c-7-9.2-14.2-18.6-20.9-28.4c-16.9-25.1-42.8-73-26.7-112.2
			l-45.5-18.8c-23.6,57.3,4,117.8,31.3,158.4c7.4,11.1,15.1,21.1,22.6,30.9c17,22.2,31.6,41.4,39.9,67
			c12.2,37.7,12.9,78.3,2.1,114.2c-20.9,69-81.9,120.1-163.3,136.4c-25.1,5.1-50.4,7.9-77.1,10.9c-23.3,2.6-47.3,5.3-71.2,9.6
			L3591.4,2025.2z"/>
		<ellipse class="st3" cx="3566.1" cy="1986.1" rx="202.4" ry="59.7"/>
		
			<linearGradient id="SVGID_1_" gradientUnits="userSpaceOnUse" x1="3527.0854" y1="-1055.9358" x2="3630.4753" y2="-775.9256" gradientTransform="matrix(1 0 0 1 0 2900)">
			<stop  offset="0" style="stop-color:#3033CF"/>
			<stop  offset="1" style="stop-color:#3066CF"/>
		</linearGradient>
		<path class="st4" d="M3300.1,1949.6c0,33.2,119.1,60.1,266,60.1s266-26.9,266-60.1s-119.1-23.2-266-23.2
			S3300.1,1916.4,3300.1,1949.6z"/>
		
			<linearGradient id="SVGID_2_" gradientUnits="userSpaceOnUse" x1="3613.604" y1="-1483.9604" x2="4038.9858" y2="-1483.9604" gradientTransform="matrix(1 0 0 1 5.272249e-03 2900.0105)">
			<stop  offset="0" style="stop-color:#3033CF"/>
			<stop  offset="1" style="stop-color:#3066CF"/>
		</linearGradient>
		<path class="st5" d="M3820.1,1285.2c117.4-5.6,215.4,48.5,218.8,120.8c3.4,72.3-89,135.4-206.4,140.9
			c-117.4,5.6-215.4-48.5-218.8-120.8C3610.3,1353.9,3702.7,1290.8,3820.1,1285.2z"/>
		<rect x="3438.6" y="2352.5" class="st2" width="235.2" height="22.6"/>
		
			<linearGradient id="SVGID_3_" gradientUnits="userSpaceOnUse" x1="3419.3" y1="-495.8999" x2="3483.7" y2="-495.8999" gradientTransform="matrix(1 0 0 1 0 2900)">
			<stop  offset="0" style="stop-color:#7E9BE2"/>
			<stop  offset="1" style="stop-color:#4B6DD1"/>
		</linearGradient>
		<path class="st6" d="M3483.7,2404.1c0,17.8-14.4,32.2-32.2,32.2s-32.2-14.4-32.2-32.2s14.4-32.2,32.2-32.2l0,0
			C3469.3,2371.9,3483.7,2386.3,3483.7,2404.1z"/>
		<path class="st2" d="M3475.2,2404.1c0,13.1-10.6,23.7-23.7,23.7c-13.1,0-23.7-10.6-23.7-23.7c0-13.1,10.6-23.7,23.7-23.7l0,0
			C3464.6,2380.4,3475.2,2391,3475.2,2404.1z"/>
		
			<linearGradient id="SVGID_4_" gradientUnits="userSpaceOnUse" x1="3525.8" y1="-495.8999" x2="3590.2" y2="-495.8999" gradientTransform="matrix(1 0 0 1 0 2900)">
			<stop  offset="0" style="stop-color:#7E9BE2"/>
			<stop  offset="1" style="stop-color:#4B6DD1"/>
		</linearGradient>
		<path class="st7" d="M3590.2,2404.1c0,17.8-14.4,32.2-32.2,32.2s-32.2-14.4-32.2-32.2s14.4-32.2,32.2-32.2l0,0
			C3575.8,2371.9,3590.2,2386.3,3590.2,2404.1z"/>
		<path class="st2" d="M3581.7,2404.1c0,13.1-10.6,23.7-23.7,23.7c-13.1,0-23.7-10.6-23.7-23.7c0-13.1,10.6-23.7,23.7-23.7l0,0
			C3571.1,2380.4,3581.7,2391,3581.7,2404.1z"/>
		
			<linearGradient id="SVGID_5_" gradientUnits="userSpaceOnUse" x1="3632.3" y1="-495.8999" x2="3696.7" y2="-495.8999" gradientTransform="matrix(1 0 0 1 0 2900)">
			<stop  offset="0" style="stop-color:#7E9BE2"/>
			<stop  offset="1" style="stop-color:#4B6DD1"/>
		</linearGradient>
		<path class="st8" d="M3696.7,2404.1c0,17.8-14.4,32.2-32.2,32.2s-32.2-14.4-32.2-32.2s14.4-32.2,32.2-32.2l0,0
			C3682.3,2371.9,3696.7,2386.3,3696.7,2404.1z"/>
		<path class="st2" d="M3688.2,2404.1c0,13.1-10.6,23.7-23.7,23.7c-13.1,0-23.7-10.6-23.7-23.7c0-13.1,10.6-23.7,23.7-23.7l0,0
			C3677.6,2380.4,3688.2,2391,3688.2,2404.1z"/>
		<path class="st9" d="M3200.4,1786.7c0,0-71.3,3.9-91.8,39.1s76.3,464.1,70.1,487s-25.8,89-45.8,98.4s56.4-11.3,89.3-63.7
			c0,0,8-21.9,0-48.5c0.4-31.9,2.7-63.8,7.1-95.5c7.1-50,29.8-243.6,18.7-262.1c0,0,33.6-3.2,52.3-13.1c0,0,110.2-77.8,82.7-93.9
			S3355.6,1776.8,3200.4,1786.7z"/>
		<path class="st10" d="M3180.6,1789.1c0,0,15.7-2.3,22.7,4.4s-10.5,33.1-11.4,59c-3,88.8,44.7,292.8,44.9,291.7s7.3-57,7.3-57
			s61.3-295.4,59.1-302s-99.9,0-99.9,0L3180.6,1789.1z"/>
		<path class="st11" d="M3291.6,1791.8c0,0-67.8,3.9-88.3,39s76.3,464.1,70.1,487s-25.8,89-45.7,98.4s56.4-11.3,89.3-63.7
			c0,0,8-21.9,0-48.5c0.4-31.9,2.7-63.8,7.1-95.5c7.1-50,31.5-240.2,21.3-276.6l49.7,1.4c0,0,94.2-77.9,66.6-94.1
			S3338.3,1777.7,3291.6,1791.8z"/>
		<path class="st10" d="M3274.5,1793.8c0,0,108.9,21.9,113,71.2s-42.6,46.5-42.6,46.5l0.4,20.3l66,2.2c0,0,101-94.4,37.9-117.9
			s-155.3-24.8-155.3-24.8L3274.5,1793.8z"/>
		<path class="st12" d="M3718.4,1943.1c-61.3,26.7-323.3,10.7-323.3,10.7s50.6-49.8,0.9-112.8c-16.1-20.4-43.3-33.2-72.7-41.2l0,0
			c-61.4-16.6-132.5-12.2-132.5-12.2c-23.9-12.3,196.9-39.8,254.4-46.8c8.6-1,13.5-1.6,13.5-1.6l309.7-4.1
			C3768.4,1735.2,3779.7,1916.4,3718.4,1943.1z"/>
		<path class="st13" d="M3718.4,1943.1c-61.3,26.7-323.3,10.7-323.3,10.7s50.6-49.8,0.9-112.8c-16.1-20.4-43.3-33.2-72.7-41.2
			c58.8,2.2,120.7,58.3,114.2,108.9s252.5,22.2,268.5,0s23.1-132.3-97.6-126.4s-163.2-41.4-163.2-41.4c8.6-1,13.5-1.6,13.5-1.6
			l309.7-4.1C3768.4,1735.2,3779.7,1916.4,3718.4,1943.1z"/>
		<path class="st14" d="M3314.4,2302c-0.5,4.5-1.3,9-2.6,13.3c-3.8,12.3-11.1,23.9-17.2,35.4c-6.6,12.4-12.5,25.2-19.2,37.6
			c-3.4,6.3-7.6,11.4-15.6,13.4c-3.7,0.9-7.5,1.3-11.3,1.2c-2.3,0-4.9-1.1-7.1-1c-1.9,0.1-3.6,1.4-5.1,2.3
			c-5.6,3.7-10.6,8.1-16.3,11.9c-4.9,3.3-10.3,5.6-15.4,8.6c-1.6,0.9-3.9,2.1-4.2,4c-0.4,2.7,3.1,5,5.6,5.8
			c7.5,2.5,17.6-0.2,25.2-1.1c16-1.9,32.9-2.7,48.6-6.5c5.1-1.2,10.3-2.9,13.2-7.1c5.4-7.8,5.9-18.5,8.3-27.1
			c2-7.3,4.6-14.9,9.8-20.9c4-4.5,8.9-8.1,14.3-10.6c1.9-0.9,2.8-1.6,4.1,0.2c2.1,2.8,1.5,8.1,2.1,11.4c1.2,6.6,6.8,39.8,7.2,42.2
			c0.1,0.9,0,3.5,0.7,4.2c0.9,1-0.2,0.5,2,0.5c1,0,6.1-0.2,6.9-0.9c1.2-1-0.6-7.6-0.8-9.5c-0.8-6.6-1.4-13.3-1.9-19.9
			c-0.9-12.8-2.1-25.9-0.4-38.6c1.4-10.5,3.6-19.5,1.3-30.1c-1.2-5.6-3.2-11.4-7.2-16c-5.7-6.6-15.5-11-23.3-15.4L3314.4,2302z"/>
		<path class="st14" d="M3219.7,2297c-0.5,4.5-1.3,9-2.6,13.3c-3.8,12.3-11.1,23.9-17.2,35.4c-6.6,12.4-12.5,25.2-19.2,37.6
			c-3.4,6.3-7.6,11.4-15.6,13.4c-3.7,0.9-7.5,1.3-11.3,1.2c-2.3-0.1-4.9-1.1-7.1-1c-1.9,0.1-3.6,1.4-5.1,2.3
			c-5.6,3.7-10.6,8.1-16.2,11.9c-4.9,3.3-10.4,5.6-15.4,8.6c-1.6,0.9-3.9,2.1-4.2,4c-0.4,2.7,3.1,5,5.6,5.8
			c7.5,2.5,17.6-0.2,25.2-1.1c16-1.9,32.9-2.7,48.6-6.5c5.1-1.2,10.3-2.9,13.2-7.1c5.4-7.8,5.9-18.5,8.3-27.1
			c2-7.3,4.6-14.9,9.8-20.9c4-4.5,8.9-8.1,14.3-10.6c1.9-0.9,2.8-1.6,4.1,0.2c2.1,2.8,1.5,8.1,2.1,11.4c1.2,6.6,6.8,39.9,7.2,42.2
			c0.2,0.9,0,3.5,0.7,4.2c0.9,1-0.1,0.5,1.9,0.5c1,0,6.1-0.2,6.9-0.9c1.2-1-0.6-7.6-0.8-9.5c-0.8-6.6-1.4-13.3-1.9-19.9
			c-0.9-12.8-2.1-25.9-0.4-38.7c1.4-10.5,3.6-19.5,1.3-30.1c-1.2-5.6-3.2-11.4-7.2-16c-5.7-6.6-15.5-11-23.3-15.4L3219.7,2297z"/>
		
			<linearGradient id="SVGID_6_" gradientUnits="userSpaceOnUse" x1="3273.1177" y1="-1262.0087" x2="3157.0276" y2="-1288.1287" gradientTransform="matrix(1 0 0 1 0 2900)">
			<stop  offset="0" style="stop-color:#FF8DA0"/>
			<stop  offset="0.44" style="stop-color:#FF96A8"/>
			<stop  offset="1" style="stop-color:#FF9CAD"/>
		</linearGradient>
		<polygon class="st15" points="3239.9,1605.5 3167.4,1602.1 3163.3,1638.3 3256.2,1639.6 		"/>
		<path class="st16" d="M3413.6,1148.4c0,0-18.6,26-15.4,52s12.1,31.5,12.1,31.5s14.6-18.3,42.4-6.2s113.6,40.2,140.6,18.4
			s-91.8-210.9-91.8-210.9L3413.6,1148.4z"/>
		<path class="st17" d="M3458.8,1625.5c0,0-6.3,106.8-13.5,115.4c0,0,36.1,24,120.7,29.9s216.1,0,216.1,0l18-168.8L3458.8,1625.5z"
			/>
		<path class="st11" d="M3714.9,1270.8c0,0-25.9,51.7-85.6,79.2s-79.6-61.4-79.6-61.4s12.5-4.5,24.1-9.7c9.2-4.1,17.7-8.6,18.8-11.6
			c2.4-6.7-9.3-43.6-9.3-43.6c-29.9,5.5-63.7-8-86.4-50.9c-21.4-40.3-9.5-98.4-9.5-98.4s12.2-34.6,34.3-45.8s114.7,19.4,132.5,34.5
			s16.1,123.3,16.1,123.3s8.1,47.4,11.3,63.5c1.5,7.4,8.6,12.4,15.9,15.7C3703,1267.9,3708.9,1269.7,3714.9,1270.8z"/>
		<path class="st18" d="M3715.1,1270.6c0,0-25.9,51.7-85.6,79.2s-79.6-61.4-79.6-61.4s12.5-4.5,24.1-9.7c0.1,0.4,9.7,27.3,36.1,29.5
			c24.9,2.1,64.7-5.2,87.5-42.9C3703.2,1267.7,3709,1269.5,3715.1,1270.6z"/>
		<path class="st18" d="M3583.4,1223.5c0,0,30.7-7.7,50.7-24c27.1-22.1,26.7-60.7,29.7-55.2c0.4,0.6,0.7,1.3,1,2
			c22.1,60-75.2,99.2-75.2,99.2L3583.4,1223.5z"/>
		<path class="st19" d="M3580.7,1125.5c0.8-3.7,4.1-6,7.4-5.1c3.3,0.8,5.3,4.5,4.5,8.1c-0.8,3.7-4.1,6-7.4,5.1
			C3581.9,1132.8,3579.9,1129.2,3580.7,1125.5"/>
		<path class="st18" d="M3484.3,1107.6c0,0,7.4-42.7,27.8-51.9c20.9-9.5,26.9,8.9,27.9,15.3s-13.4,47,19,56.7
			c23.4,7,37.3,5.4,53-3.5c14.4-8.1,21.3,8.1,21.3,8.1c7.6-31-63.1-115.9-79.7-111.4s-61.3,23.1-61.3,23.1
			S3485.1,1070.1,3484.3,1107.6z"/>
		<path class="st19" d="M3513,1047.8c0,0-15.3-1.1-33.3,42.9s-66.1,57.7-66.1,57.7s37.4-68.6,48.1-99.5s44.5-36.2,61.9-18.8
			L3513,1047.8z"/>
		<path class="st17" d="M3809.3,1305.1c-14.5-12.4-96.4-41.6-101.5-40.6s-16.5,26.6-35.9,38.8s-91.3,34.8-102.6-22.5
			c0,0,0.1-4.1-5.6-3.8s-86.9-0.2-98.4,54.2c-5.5,26.2-33.8,177.3-42.2,232.1l0,0c0,0-145.2,22-150.2,27.6s-34.5,6.7-34.5,6.7
			s5.9,34.5,9.2,44.2h143.2c0,0,30.8-31.2,40.9-52.9l103.4,52.9h251.5c0,0,49.5-1.9,58.2-17.5S3823.8,1317.4,3809.3,1305.1z"/>
		<path class="st20" d="M3493.2,1392.3c0,0-12.2,167-33.3,209.8l-17.1-8.3C3454.4,1596,3486,1340,3493.2,1392.3z"/>
		<path class="st20" d="M3731.8,1385.3c0,0,4.3,163.7,0,165.3s-163.2,5.4-166.4,11.3s-7.5,12.4-16.1,10.8s-14-2.5-14-2.5v14.9
			l-68.4-2l4.7-19.3c0,0,41.1,5.7,62.1-1.3s61.6-21,138.1-17.7S3711.8,1361.5,3731.8,1385.3z"/>
		<path class="st21" d="M3557,1571.7c0,0,3,30.6,0,46.8"/>
		<path class="st21" d="M3550.1,1302.4c0,0,49.5,66.8,136.8,17.2"/>
		<rect x="627.6" y="1640.4" class="st13" width="1171.9" height="38.8"/>
		<rect x="627.6" y="1679.2" class="st22" width="1171.9" height="38.8"/>
		<rect x="1799.4" y="1640.4" class="st23" width="263.2" height="38.8"/>
		<rect x="1799.4" y="1679.2" class="st24" width="263.2" height="38.8"/>
		<rect x="712.1" y="1718" class="st22" width="38.8" height="725.4"/>
		<rect x="1760.7" y="1718" class="st22" width="38.8" height="725.5"/>
		<rect x="900.5" y="1718" class="st24" width="38.8" height="725.5"/>
		<rect x="1949" y="1718" class="st24" width="38.8" height="725.4"/>
		<rect x="2617.4" y="1640.4" class="st13" width="1171.9" height="38.8"/>
		<rect x="2617.4" y="1679.2" class="st22" width="1171.9" height="38.8"/>
		<rect x="3789.2" y="1640.4" class="st23" width="263.2" height="38.8"/>
		<rect x="3789.2" y="1679.2" class="st24" width="263.2" height="38.8"/>
		<rect x="2701.9" y="1718" class="st22" width="38.8" height="725.4"/>
		<rect x="3750.4" y="1718" class="st22" width="38.8" height="725.5"/>
		<rect x="2890.2" y="1718" class="st24" width="38.8" height="725.4"/>
		<rect x="3938.8" y="1718" class="st24" width="38.8" height="725.5"/>
		<polygon class="st25" points="843.2,1628.3 843.2,1628.3 838.7,1628.3 838.7,1628.3 		"/>
		<polygon class="st25" points="842,1384.8 837.4,1384.8 838,1495.6 838.7,1628.3 831.5,1628.3 830.6,1460.8 830.2,1384.8 
			849.2,1384.7 850,1552.3 850.4,1628.2 843.2,1628.3 842.6,1517.4 		"/>
		<polygon class="st25" points="1068.7,1212 1071.2,1215.8 1071.2,1215.8 		"/>
		<path class="st25" d="M854.5,1361.2l-1.7-2.5L854.5,1361.2z"/>
		<polygon class="st25" points="1071.2,1215.8 1075.3,1221.8 963.7,1296.6 858.5,1367.2 854.5,1361.2 962.1,1289 		"/>
		<polygon class="st25" points="1064.7,1206 1068.7,1212 961.1,1284.2 852,1357.4 852.8,1358.7 847.9,1351.4 959.5,1276.6 		"/>
		<path class="st26" d="M1109.3,1256.1c10.1-2.1,16.5-12,14.3-22.1c-2.1-10.1-12-16.5-22.1-14.3c-10.1,2.1-16.5,12-14.3,22.1l0,0
			C1089.3,1251.8,1099.2,1258.2,1109.3,1256.1z"/>
		<path class="st27" d="M1032.2,1164.2c3.2-0.7,5.3-3.8,4.6-7c-0.7-3.2-3.8-5.3-7-4.6c-3.2,0.7-5.3,3.8-4.6,7l0,0
			C1025.9,1162.8,1029,1164.9,1032.2,1164.2z"/>
		<path class="st28" d="M1031,1158.4c5-4.7,10.6-8.6,16.7-11.8l30.5,24.5c24-6,53.3,3,75,25.3c-15.7,12.6-31.7,26.5-47.7,41.4
			s-30.9,30-44.5,44.8c-20.8-23.1-28-53-20.4-76.5l-22.5-32C1021.7,1168.4,1026,1163.1,1031,1158.4z"/>
		<path class="st29" d="M822.8,1357.7c5.9-9.3,18.3-12.1,27.6-6.2s12.1,18.3,6.2,27.6c-5.9,9.3-18.3,12.1-27.6,6.2c0,0,0,0-0.1,0
			C819.6,1379.4,816.9,1367,822.8,1357.7z"/>
		<path class="st30" d="M1036.7,1200.7c5.3-13,22.9-28.6,36.4-33.6l5.1,4.1c-13.3,3.6-34.6,22.5-37.5,35.1L1036.7,1200.7z"/>
		<path class="st28" d="M842.7,1382.8c8-1.7,13-9.5,11.3-17.5s-9.5-13-17.5-11.3s-13,9.5-11.3,17.5S834.7,1384.5,842.7,1382.8z"/>
		<path class="st29" d="M842,1592.9c26.2,0,47.5,21.3,47.5,47.5h-95C794.5,1614.2,815.8,1592.9,842,1592.9z"/>
		<rect x="3304.8" y="1624.8" class="st31" width="207.8" height="16.8"/>
		<polygon class="st32" points="3270,1427.8 2993.6,1427.8 3003.5,1415.9 3279.9,1415.9 		"/>
		<polygon class="st31" points="3316.2,1641.6 3044.9,1641.6 3270,1427.8 3279.9,1415.9 		"/>
		<polygon class="st32" points="3304.8,1641.6 3028.4,1641.6 2993.6,1427.8 3270,1427.8 		"/>
		<path class="st33" d="M3173.8,1530c2.9,15.5-5.7,30.2-19.3,32.8s-27-7.9-30-23.4s5.7-30.2,19.3-32.8S3170.9,1514.5,3173.8,1530z"
			/>
		<rect x="1364.7" y="1624.8" class="st31" width="207.8" height="16.8"/>
		<polygon class="st32" points="1329.9,1427.8 1053.5,1427.8 1063.4,1415.9 1339.9,1415.9 		"/>
		<polygon class="st31" points="1376.1,1641.6 1104.9,1641.6 1329.9,1427.8 1339.9,1415.9 		"/>
		<polygon class="st32" points="1364.7,1641.6 1088.3,1641.6 1053.5,1427.8 1329.9,1427.8 		"/>
		<path class="st33" d="M1233.8,1530c2.9,15.5-5.7,30.2-19.3,32.8s-27-7.9-30-23.4s5.7-30.2,19.3-32.8S1230.8,1514.5,1233.8,1530z"
			/>
		<path class="st33" d="M3413.7,1603c0,0-30.9,18.8-29,38.8h148.1c0,0-36.6-49-50-50.2S3422.6,1588.5,3413.7,1603z"/>
		<path class="st11" d="M3535.2,1585.1c0,0,5.9,40.9,0,56.5c0,0-30.2,3.2-37.7-23.2s-51.9-27.9-77.4-16.4c0,0-13.6,3.9-13.9-4.8
			c0,0,9.4-2.4,13.9-7.4s17.9-12.7,33.7-12.7S3535.2,1585.1,3535.2,1585.1z"/>
		<path class="st34" d="M1944.7,2297.8c0,0,3.3,53.4-4.6,87.6s-5,47.4,12.8,53.9s49.4-14.5,52-20.4s160.8,16.5,112.1-4.6
			s-105.1-50.7-109.1-60.6s-5.3-72.4-5.3-72.4L1944.7,2297.8z"/>
		<path class="st14" d="M2211.9,2284.6c0,0-17.6,66.5-25.5,100.8s-6.2,52.7,11.6,59.3s83.8-22.7,86.4-28.7s89.9,36.6,76.6,12
			c-25.4-46.6-91-57.5-95-67.4s6.7-86,6.7-86L2211.9,2284.6z"/>
		<path class="st35" d="M2004.2,2320.6c0,0-33.7,13-58.8,10.5v-39.8l58.8,4V2320.6z"/>
		<path class="st35" d="M2267,2322.3c0,0-39.7,12-67.2,8.5l8-39.5l64.7-5L2267,2322.3z"/>
		<path class="st35" d="M2173.8,869.7c-0.8,1.8-2.4,10.3-6.1,20.8c0,0.2-0.1,0.3-0.2,0.5c-6.1,17.1-17.9,38.9-40.4,44.3
			c-5.4,1.3-11.1,1.6-16.6,1h-0.3l-0.2,5.5l-0.7,23.1l-1.4,44.8l-0.8,24.3l-106.2-5.7l-2.8-0.1c2.9-3.9,5.4-8,7.5-12.3l0,0
			c2.6-5,4.8-10.2,6.6-15.5c7.4-21.5,9-44.5,4.6-66.8c-0.5-2.7-1.1-5.5-1.8-8.4c-2.1-8.4-4.9-16.7-8.4-24.7l0,0
			c-2.5-5.9-5.4-11.6-8.5-17.2c-32.9-58.8,29.7-110.3,71.4-136.5l0,0c4.4-2.8,8.6-5.2,12.4-7.4l0,0"/>
		<path class="st36" d="M2108,1009.6l-0.8,24.3l-106.2-5.7l4.8-12.4l0,0c2.6-5,4.8-10.2,6.6-15.5c3.7,2.9,27,20.6,51.6,19.5
			C2077.9,1019.1,2094.9,1014.2,2108,1009.6z"/>
		<path class="st35" d="M1894.4,1200.8c0,0,1.4,87.6-3.7,105.7s-30.6,297.4,17.7,338.6s50-332.2,39.5-376.8
			S1894.4,1200.8,1894.4,1200.8z"/>
		<path class="st37" d="M2364.2,1937.6c-24.6,72-74.6,354.8-74.6,354.8c-21.9,37.8-122,14.9-122,14.9s14.9-152.8,16.7-216
			s27.2-194.1,27.2-194.1l-125.9-189.7c0,0-24.2,294.2-34.8,341.6c-10.5,47.4-22.8,255.5-22.8,255.5c-60.6,27.2-119,0-119,0
			s-0.8-15.3-1.7-39.1c-2.3-62.1-5.3-182.5,3-242.8c11.4-83.4-5.3-187-6.2-279.2s0-202,0-202s333.8-70.3,354-7
			S2388.8,1865.6,2364.2,1937.6z"/>
		<path class="st38" d="M2085.5,1707.5c0,0-24.2,294.2-34.8,341.6c-10.5,47.4-22.8,255.5-22.8,255.5c-60.6,27.2-119,0-119,0
			s-0.8-15.3-1.7-39.1c0,0,60.5-47.4,96.1-169.9s29-321.4,27.7-394.1s19.7-47.6,19.7-47.6L2085.5,1707.5z"/>
		<path class="st38" d="M2269.3,1566.9c0,0-90.4,33.1-172,35.3s-193.7,14.9-193.7,14.9l0.4-75.5l351.8-12.3L2269.3,1566.9z"/>
		<path class="st39" d="M2263.1,1549.6c0,0-258.5,73.6-359.2,23.6l0.2-31.6l351.8-12.3L2263.1,1549.6z"/>
		<path class="st12" d="M2222.9,1261l16.2,37.3l0,0l28.6,65.8c0,0,7.2,118.1,17.8,165.1c0,0-55.5,25.2-155.6,36.2
			c-105,11.5-224.4,7.4-236.7-14.5c0,0,0.8-8.3,2.2-20.5c1.2-10.5,7.8-67.9,13.2-127.6c5.3-57.6,9.5-117.4,6.9-139.2
			c0,0-30.4,2.2-44.7-11.8c0,0,26.8-164.1,46.5-189.8c7.7-10,60.9-35.6,74.1-45.5s15.6-11.5,18.3-6.7c0,0,5.9,17.2,35.4,19.4
			c29.5,2.2,67.4-11.8,69.6-19.4s17,7,35.4,7.3c16.9,0.3,77.3,15,91.8,42.8c22.8,43.9,42.1,143.2,55.3,155.1
			C2297.1,1214.9,2272,1252.2,2222.9,1261z"/>
		<path class="st13" d="M2285.4,1529.2c0,0-55.5,25.2-155.6,36.2c-105,11.5-224.4,7.4-236.7-14.5c0,0,0.8-8.3,2.2-20.5
			c0,0,134.7-13,209.4-70.3c82.3-63.2,36.6-283.2,36.6-283.2l27.5,83.4c17.6,23.7,55.9,33.8,70.2,38l0,0l28.6,65.8
			C2267.6,1364.2,2274.9,1482.3,2285.4,1529.2z"/>
		<path class="st40" d="M1917.3,1160l-1.8,103.6c0,0-21.7,0.8-29.3-3.3c0,0,11.8-46,21.2-82.9
			C1910.1,1166.5,1913.6,1147.5,1917.3,1160z"/>
		<path class="st40" d="M2149.3,1160.3c3.1,11.8,19.5,74.6,23.2,98.2c0,0,15.2,8.6,50.4,2.5l44.8,103.2l2.4,32
			c0,0-51.2,14.1-78-53.1c-21.6-54.1-65.2-191.6-46-186.2C2147.7,1157.4,2148.9,1158.7,2149.3,1160.3z"/>
		<path class="st35" d="M2609.4,1211.7c-14-0.3-65,14.5-66.5,14.9c62.6-10.2,73.7,2.4,62.9,4.7s-57.9,8.5-57.9,8.5
			s33.9-2.3,42.1,1.8s-6.1,5.3-6.1,5.3s-1.2,0.6-31.9,5s-77,24.1-85.3,25s-178,121.1-213.5,106.1c-20.6-8.7-35.5-47.7-44.4-78.9
			c-6.4-22.5-9.6-41-9.6-41c47.9,1.3,81.7-30.7,81.7-30.7l1.6,4l22.9,58c46.1-28.8,138.2-56.2,148.4-62.9s8.2-10.5,8.2-10.5
			c0.6-20.8,14-36,20.8-46.8s28.1-10.2,19.6-1.8s-11.1,35.4-11.1,35.4c2.1,0,41.3-11.4,72.3-19.3s35.4,5.3,29.3,5.6
			s-55.8,18.2-57.3,18.7l36.3-6.7C2608.1,1199.4,2623.6,1212,2609.4,1211.7z"/>
		<path class="st36" d="M2305.4,1294.5c0,0-22,12.4-31.6,32.1c0,0-4.6,2.9,0-8.8s28.3-31.7,28.3-31.7L2305.4,1294.5z"/>
		<path class="st36" d="M2282.5,1236.5c0,0-53.2,51.7-78,51.6c-5.3-21.2-5.3-25-5.3-25c47.9,1.3,81.7-30.7,81.7-30.7L2282.5,1236.5z
			"/>
		<path class="st39" d="M2050.8,1653.9l34.8,53.6l-3.7,44C2081.8,1751.5,2025.3,1633.7,2050.8,1653.9z"/>
		<path class="st41" d="M1994.4,1019.4c0,0,42.3,54,125.3,14.5"/>
		<path class="st19" d="M3662,1024.9c-51.4-42.4-134.2-45.2-149,23c0,0,14.2-14.1,27.8,3.4s-10.7,57.3,14.4,65.4s41,14.9,63.2-1.1
			c0.9-0.6,1.7-1.2,2.6-1.7c0.2,0,12.7,2.7,12.1,16.2c-0.3,7.9,3.4-1.4,5.2-11.2c1-5.3,6.2-8.7,11.4-7.7c1.6,0.3,3.1,1,4.4,2.1
			c4.1,3.5,6.8,8.3,7.6,13.6c2.3,15.5,3,32.3,1.8,36.7l15.3,69.3c0,0,13.9-15.3,20.9-32.9C3722,1143.8,3725.4,1077.1,3662,1024.9z"
			/>
		<path class="st1" d="M2588.8,415.5h-355.2c-3,0-5.5,3.5-5.5,7.9v240.5c0,4.3,2.4,7.9,5.5,7.9h37.7c-0.9,11.1-2.7,23.4-6.4,31.9
			c0,0,14.4-15.2,23.7-31.9h300.2c3,0,5.5-3.5,5.5-7.9V423.4C2594.1,419.1,2591.7,415.5,2588.8,415.5z"/>
		<path class="st1" d="M2936,823.8h476.1c4,0,7.3,3.3,7.3,7.3v223.2c0,4-3.3,7.3-7.3,7.3h-50.4c1.2,10.3,3.6,21.7,8.6,29.7
			c0,0-19.2-14.1-31.8-29.7H2936c-4,0-7.3-3.3-7.3-7.3V831.1C2928.7,827.1,2932,823.8,2936,823.8z"/>
		<path class="st33" d="M2369.5,575.8l3.8-8.5c5.8-13.2,6.4-28.9,1.7-45.3c-4.7-16.4-1.9-34,7.6-48.1c17.9-27,54.2-34.4,81.2-16.5
			c27,17.9,34.4,54.2,16.5,81.2c-5.6,8.4-13.1,15.2-22.1,19.8c-14.9,7.6-26,18.8-31.8,32.1l-3.6,8.7L2369.5,575.8z"/>
		<path class="st1" d="M2405.9,588.5c0.6-1.3,1.3-2.5,1.8-3.8c0.5-1.1,30.5-36.7,29.5-47.1c-0.1-1.8-1-3.6-2.4-4.8
			c-1.8-1.3-4-1.9-6.2-1.6c-0.7-3.1-2.8-5.7-5.7-7.1l0,0c-2.7-1.4-5.8-0.9-8.7,1c-0.2-0.3-0.5-0.6-0.7-0.8c-2.1-2.3-5.1-3.1-8.1-2.3
			c-7.6,2.3-14.9,53.3-15.4,54.5l-1.8,4.3L2405.9,588.5z M2407.6,527.6c0.3-0.1,0.9-0.3,1.7,0.7c0.3,0.3,0.6,0.7,0.8,1
			c-1.8,2.5-3.1,5.6-1.9,8.1c0.9,1.7,2.7,2.8,4.7,2.7c1.8,0,3.5-1.1,4.1-3c0.7-2.1,0.7-4.3,0.1-6.5c0.3-0.3,0.8-0.7,1.3-0.9
			c0.6-0.3,1.6-0.8,2.2-0.5c1.4,0.7,2.2,1.9,2.4,3.4c-1.7,0.7-3.2,1.7-4.4,3c-2.1,1.9-2.2,5.2-0.2,7.3c0.2,0.2,0.3,0.3,0.6,0.6
			c1.4,1.3,3.3,1.6,5,0.9c2.6-1,4.2-4.1,4.9-7.3c0.8-0.2,1.5-0.2,2.3,0c0.1,0.2,0.2,0.5,0.2,0.8c0.7,7.2-14.8,27.9-27.2,42.2
			l-8.1-3.5C2398.8,553.6,2403.8,529.7,2407.6,527.6z"/>
		<path class="st42" d="M2362,577.9L2362,577.9c-1.7,3.9,0.1,8.4,4,10.1l50.2,21.9c3.9,1.7,8.4-0.1,10.1-4l0,0
			c1.7-3.9-0.1-8.4-4-10.1l0,0l-50.2-21.8C2368.3,572.2,2363.7,574,2362,577.9z"/>
		<path class="st42" d="M2355.9,592L2355.9,592c-1.7,3.9,0.1,8.4,4,10.1l0,0l50.2,21.9c3.9,1.7,8.4-0.1,10.1-4l0,0l0,0
			c1.7-3.9-0.1-8.4-4-10.1l0,0L2366,588C2362.1,586.3,2357.6,588.1,2355.9,592z"/>
		<path class="st42" d="M2349.7,606.1L2349.7,606.1c-1.7,3.9,0.1,8.4,4,10.1l0,0l50.2,21.9c3.9,1.7,8.4-0.1,10.1-4l0,0l0,0
			c1.7-3.9-0.1-8.4-4-10.1l0,0l-50.2-21.9C2356,600.5,2351.4,602.3,2349.7,606.1z"/>
		<path class="st42" d="M3036.5,952.2c0.1,3.2,0.4,6.2,0.9,9.3l-14.8,7.9l18.4,34.8l14.8-7.7c2.2,2.1,4.7,4.1,7.2,6l-4.9,15.9
			l37.5,11.6l4.9-15.9c3.2-0.1,6.2-0.4,9.3-0.9l7.7,14.8l34.7-18.4l-7.7-14.8c2.1-2.2,4.1-4.6,6-7.2l15.9,4.9l11.6-37.5l-15.9-4.9
			c-0.1-3.2-0.4-6.2-0.9-9.3l14.8-7.7l-18.4-34.8l-14.8,7.9c-2.2-2.2-4.6-4.2-7.2-6l4.9-15.9l-37.5-11.6l-4.9,15.9
			c-3.2,0-6.2,0.4-9.3,0.9l-7.7-14.8l-34.7,18.3l7.7,14.8c-2.2,2.2-4.2,4.7-6,7.2l-15.8-4.9l-11.6,37.5L3036.5,952.2z M3061.4,939.3
			c6.4-20.9,28.6-32.6,49.5-26.2s32.6,28.6,26.2,49.5c-6.4,20.9-28.6,32.6-49.5,26.2C3066.7,982.5,3055,960.3,3061.4,939.3
			L3061.4,939.3z M3238.5,946.5c0,2,0.2,3.9,0.6,5.9l-9.3,4.9l11.5,21.9l9.3-4.9c1.4,1.4,2.9,2.6,4.6,3.8l-3,10l23.6,7.3l3-10
			c2,0,3.9-0.2,5.9-0.6l4.9,9.3l21.8-11.5l-4.9-9.3c1.4-1.4,2.6-2.9,3.8-4.5l10,3l7.3-23.7l-10-3c0-2-0.2-3.9-0.6-5.9l9.3-4.9
			l-11.6-21.9l-9.3,4.9c-1.4-1.4-2.9-2.6-4.5-3.8l3-10l-23.6-7.3l-3,10c-2,0-3.9,0.2-5.9,0.6l-4.9-9.3l-21.8,11.5l4.9,9.3
			c-1.4,1.4-2.6,2.9-3.8,4.5l-10-3l-7.3,23.7L3238.5,946.5z M3254.2,938.4c4.1-13.1,18.1-20.5,31.2-16.4
			c13.1,4.1,20.5,18.1,16.4,31.2c-4.1,13.1-18.1,20.5-31.2,16.4l0,0C3257.5,965.5,3250.2,951.5,3254.2,938.4L3254.2,938.4z"/>
	</g>
	<g id="Calque_3">
		<path class="st43" d="M2097.8,1004.7c6.3-6.7,9.9-10.9,9.8-18.6c1.9-0.9-1.2-12.8,0.3-13.7c3.7,0.5,7.8,0.6,12.3,0.3
			c3.6-0.3,33-10.4,46.1-36.6c9.8-19.6,10.7-26.4,17.8-47.5c2.6-7.6,3.1-14.7,2.2-23.2c-1.2-11-6.9-25-11.1-35.1
			c-4.9-12-4.1-23.7-2.1-36c0.5-2.9,1.7-11.4,2.6-11.9l-0.8-2c-1.2-13.1-20.7-18.7-30.2-21.8c-29.8-9.6-74.8-19.3-102.6-3.3
			c-25.2,14.5-31.3,46.2-31.6,74.7c0,0.1,0,0.3,0,0.4c-8.3-3-18-2.8-23,5.7c-3.2,5.5-3.3,12.6-2.3,18.7c3.2,19.3,16.5,34,35.1,39.8
			c0.6,2.2,1.3,4.5,2.1,6.7c-2.2,15.3-9.8,97.6-8.4,99.4c1.8,2.3,25.3,13.4,27.8,14.9C2053.7,1022.8,2088.2,1014.9,2097.8,1004.7z"
			/>
		<path class="st44" d="M2153.9,823.3c-4.2,1.1-4.1,10.5-0.8,12.5c3.4,2,7.6-0.6,6.8-6.6C2159,823.1,2153.9,823.3,2153.9,823.3
			L2153.9,823.3z"/>
		<path class="st44" d="M2099.6,824.7c-4.8,1.4-4.9,11.7-1.1,13.9c3.8,2.2,8.7-0.7,7.8-7.5C2105.4,824.4,2099.6,824.7,2099.6,824.7
			L2099.6,824.7z"/>
		<g>
			<path class="st45" d="M2141.4,796.9c0,1.3,0.6,2.6,2.1,2.5s3-1.1,4.4-1.6c2.1-0.8,4.6-1,6.8-0.4c4,1.2,6.3,5,9.8,7
				c2.1,1.2,4.4,1.1,4.8-1.7l0.4-3.2c-0.2-2.1-4-4.6-5.4-5.7c-3.8-2.9-8.7-5.6-13.7-5.5C2146,788.4,2141.3,792,2141.4,796.9z"/>
			<path class="st45" d="M2076.7,808.2c3.8,1.9,6.4-2.5,8.6-4.8c2.1-2.2,4.7-3.7,7.6-4.5c4.8-1.4,8.5,1.3,13.2,1.5
				c2.2,0.1,3.8-1.8,3.3-4l-1-1.7c-1.1-0.3-2.7-1.7-3.9-2.2c-3.4-1.3-7-2.1-10.6-2.3c-6.4-0.3-13.5,1.7-17.5,7
				C2074.2,800.2,2072.6,806.2,2076.7,808.2z"/>
			<path class="st46" d="M1977.1,787.1c8.5,8.1,22.3-3.9,24.1-4.2c9.4-1.2,9.2-14.6,18.2-10.7l7.5,4.3c-0.1,0.8,1-8,1.6-8.4
				c1.4-1,2.8-2,4.3-2.9c4.5-2.7,9.5-4.6,14.4-6.2c15.3-5,32.3-6.3,48.3-5.2c13.7,0.9,27.4,3.5,40.6,7.5
				c21.1,6.3,44.2,21.6,66.1,10.6c4.6-2.3,8.8-5.1,12.7-8.4c4.4-3.7,7.9-8.2,10.6-13.3c3-5.7,4.9-12.1,5.7-18.5
				c1.1-9,0.1-18.8-2.6-27.5c-3.1-9.8-8.3-18.8-15.8-25.9c-5.9-5.6-12.6-10.5-20-13.8c-5.9-2.6-12.2-4.5-18.7-5
				c-35.3-2.9-51.1,34.9-83.4,41.5c-28.2,5.8-59.5-6.7-86.5,6c-16.9,7.9-43.3,28.8-43.1,48.1
				C1961.1,759.4,1964.7,775.2,1977.1,787.1z"/>
		</g>
		<path class="st47" d="M1984.4,845.1c0.1,0.1,3-5.1,3.2-5.5c2.3-3.7,5.3-6.6,9.7-7.2c5.7-0.8,10.5,1.6,15.1,4.7
			c1,0.7,5.3,4.7,6.8,4.1c-0.1-4.3,10.5-22.4,10.8-26.7c1.1-16.4-1.9-34.8,1-48.1c0.5-2.2-41.1,7.6-49.6,15.1c-4,3.5-6,4.6-3.9,6.5
			c2.4,2.1,6.3,16.9,7.9,30.8c0.5,4.4-3.7,17.8-2.5,22C1983.3,841.8,1983.5,844.4,1984.4,845.1z"/>
		<path class="st48" d="M1994.9,793.6c8.3-1.7,16.7-3,25.1-4.4"/>
		<path class="st48" d="M2013.8,801.6c-6.2,1.2-12.5,2.2-18.6,3.6"/>
		<path class="st48" d="M2001.6,822.8c4.7,0.7,16.4,4.2,18-2.8l0.5-1.9c0.4-0.2-1.9-0.1-2.3-0.1c-1.6,0-3.2,0-4.8,0.1
			c-4.8,0.3-9.7,0.5-14.5,1.4c-0.4,0.1-3.9,0.5-3.8,1.3C1995,822.3,2000.7,822.7,2001.6,822.8z"/>
		<path class="st48" d="M2103.6,706.7c10.9,6.9,20.8-0.5,30.6-5.5c7.8-4,16.9-6.4,25.7-5.9c17.3,1.1,38.7,18.9,38.6,37.2
			c0,4.5-0.1,9-2.2,13c-0.9,1.8-2.2,3.4-3.6,4.8c-0.2,0.2-1.3,1.2-1,1.5c0.5,0.6,2.9-0.7,3.4-0.8c3.6-1.4,7.1-3.2,9.9-5.7
			c9.4-8.5,12.6-21.2,9.2-33.3c-6.9-24.2-34.8-45.9-60.4-38.6c-11.5,3.3-20.6,13.4-29.9,20.5c-5.1,3.9-10.3,7.6-15.8,10.7
			c-0.6,0.3-6.1,2.3-6.3,2.9"/>
		<path class="st48" d="M2125,718.5c6.7,7.2,15.5,11.4,24.8,14c8,2.2,15.7,4,22.4,9.2c2.4,1.9,4.6,4,6.6,6.3
			c0.3,0.3,1.6,2.7,2.2,2.7c1,0,2.8-3.7,3.2-4.4c3-5.6,2.5-11.5-0.5-17c-9.2-16.6-27.2-18.4-44-15c-4,0.8-7.9,1.9-11.8,2.9
			c-0.4,0.1-3.3,0.4-3.5,0.8"/>
		<path class="st49" d="M2148.4,917.4c0,0-36.1,1.5-47.4,7.2"/>
		<path class="st49" d="M2152.5,887.4c4.1-5.5-11.8-32.4-22-51.5c4.9,16.7,16.1,48,14,46.4c0,0-16.1,4-18.7,7.3
			C2123.3,892.9,2147.8,893.6,2152.5,887.4z"/>
		<path class="st49" d="M2066.8,988.8c1.3,2.3,5.3,13,8.1,13.4c3.4,0.5,26.9,2.4,33.3,0c0-8.1,0.2-10,0.4-16.7
			c0.1-6,0.5-12.4,6.9-13c-0.1,0-0.2-0.1-0.3-0.1c-10.8-3.6-17.1-7.2-26.5-13.7c-14.5-10.2-27.7-22.8-38.3-36.9
			c-4.2-5.6-8.2-11.3-12.2-17c-0.3-0.4-3.3-5.4-3.9-5.2c-0.5,0.2,0.8,4.3,0.9,4.6c1.3,5.2,2.8,10.4,4.4,15.5
			c4.6,15.1,9.3,31.6,16.1,46.4C2058.4,974.1,2062.6,981.6,2066.8,988.8z"/>
	</g>
	<path class="st19" d="M3551.9,1128.8c-1.3,3.5-2.6,6.9-3.9,10.4l-2,5.2l-2,5.1c-0.2,0.4-0.3,0.8-0.4,1.2c-0.1,0.4-0.2,0.8-0.3,1.2
		c-0.1,0.4-0.1,0.8-0.1,1.2c-0.1,0.4,0,0.8,0,1.2c0.1,1.6,0.5,3.2,1.1,4.7s1.6,2.9,2.8,4.1l1,0.9l1.1,0.8l1.1,0.7l0.6,0.3l0.3,0.2
		l0.2,0.1h0.1l0,0l0,0l0,0c0,0.1,0-0.1,0,0.1c-1,0.3-1.9-0.1-2.9-0.3c-0.5-0.2-0.9-0.3-1.4-0.5c-0.4-0.2-0.9-0.5-1.3-0.7
		c-1.7-1.1-3.1-2.6-4.1-4.4s-1.5-3.9-1.4-6c0-0.5,0.1-1,0.2-1.5c0.1-0.5,0.2-1,0.3-1.5s0.3-1,0.5-1.4c0.2-0.5,0.4-1,0.6-1.3l2.4-5
		l2.4-5c1.6-3.3,3.2-6.6,4.9-9.9L3551.9,1128.8z"/>
	<path class="st19" d="M3493,1097.8c2-3.1,9.4-4.5,12.5-5.3c6.5-1.5,13.7-1.8,20.1-0.9c2.5,0.4,8.2,0.6,7.2,4
		c-0.9,3.1-5.7,2.9-8.4,2.7c-4.4-0.3-8.9-0.6-13.4-0.7c-6.4,0-12.4,1-18.6,2C3492.4,1099,3492.6,1098.4,3493,1097.8"/>
	<path class="st19" d="M3516.4,1122.4c0.5-3.4,3.1-5.8,5.9-5.4c2.8,0.5,4.6,3.7,4.2,7.1c-0.5,3.4-3.2,5.8-5.9,5.4
		C3517.8,1129,3515.9,1125.8,3516.4,1122.4"/>
	<path class="st50" d="M3599.2,1152.2c-1.2-4.7,1.6-9.4,6.3-10.6s9.4,1.6,10.6,6.3c1.2,4.7-1.6,9.4-6.3,10.6
		C3605.2,1159.6,3600.4,1156.8,3599.2,1152.2"/>
	<path class="st50" d="M3501.8,1149.1c-1-4.7,2.1-9.3,6.8-10.3s9.3,2.1,10.3,6.8c1,4.7-2.1,9.3-6.8,10.3
		C3507.3,1156.9,3502.7,1153.8,3501.8,1149.1"/>
	<path class="st51" d="M3588.3,1170.1c-14.7,10.1-38.9,13.4-52.1,12.7c3.2,6,8.8,12.8,14.5,15.6c0.7,0.3,1.4,0.6,2.1,0.8
		c0.1,0,0.1,0,0.2,0.1c11.3,3.2,23.8-3.8,30.6-15.6c0.1-0.2,0.2-0.3,0.3-0.5C3586,1179.1,3587.6,1174.8,3588.3,1170.1"/>
	<path class="st52" d="M3583.5,1183.6c-11.8,1.7-23.3,6.9-32.9,14.7c0.7,0.3,1.4,0.6,2.1,0.8c0.1,0,0.1,0,0.2,0.1
		C3564.2,1202.4,3576.7,1195.3,3583.5,1183.6"/>
	<path class="st19" d="M3510.5,1115.4c0.9-0.5,1.8-0.9,2.7-1.3s1.8-0.7,2.8-0.9c1.9-0.5,3.7-0.8,5.6-0.8c1,0,1.9,0,2.9,0.2
		s1.9,0.5,2.8,1c0.9,0.6,1.7,1.3,2.4,2.2c0.7,0.9,1.3,2,1.7,3.2l-0.2,0.2c-0.9-0.5-1.7-1.1-2.5-1.5s-1.6-0.8-2.4-1.1l-2.4-0.9
		c-0.8-0.3-1.7-0.6-2.5-0.7c-0.9-0.2-1.8-0.2-2.7-0.2s-1.8,0-2.7,0.1c-1.8,0.1-3.6,0.4-5.5,0.9L3510.5,1115.4z"/>
	<path class="st53" d="M2162.7,2441.9c-3.4,7-60,13.2-86.2,11.6c-26.2-1.5-61.9-17.7-75.2-19.8c-13.3-2.1-11.4,9.9-14.7,10
		c-7.2,0.3-59-3.4-59-3.4s-7-13.6-11.6-35.6c-2.3-10.7-2.3-19.4-1.1-26.5c2.5-14.7,10.6-22.7,15.7-27.4c0,0,8.2,3.9,18.4,14.1
		c10.2,10.2,62.3,2.6,62.3,2.6s1.6-3.7-2.2-10.2c-3.9-6.5,14.8-16.5,26.8-13.1c12.1,3.5,9.2,17.8,19,25.3
		c9.8,7.5,78.4,31.1,97.6,34.2c8.2,1.3,11.6,7.7,12.7,14.8C2166.7,2428.4,2163.9,2439.5,2162.7,2441.9"/>
	<path d="M2162.7,2441.9c-3.4,7-60,13.2-86.2,11.6c-26.2-1.5-61.9-17.7-75.2-19.8c-13.3-2.1-11.4,9.9-14.7,10
		c-7.2,0.3-59-3.4-59-3.4s-7-13.6-11.6-35.6c-2.3-10.7-2.3-19.4-1.1-26.5c71.9,46.1,173.1,65.3,250.3,40.5
		C2166.7,2428.4,2163.9,2439.5,2162.7,2441.9"/>
	<path class="st53" d="M2416.4,2447.9c-3.4,7-60,13.2-86.2,11.6c-26.2-1.5-61.9-17.7-75.2-19.8s-11.4,9.9-14.7,10
		c-7.2,0.3-59-3.4-59-3.4s-7-13.6-11.6-35.6c-2.3-10.7-2.3-19.4-1.1-26.5c2.5-14.7,10.6-22.7,15.7-27.4c0,0,8.2,3.9,18.4,14.1
		c10.2,10.2,62.3,2.6,62.3,2.6s1.6-3.7-2.2-10.2c-3.9-6.5,14.8-16.5,26.8-13.1c12.1,3.5,9.2,17.8,19,25.3s78.4,31.1,97.6,34.2
		c8.2,1.3,11.6,7.7,12.7,14.8C2420.4,2434.4,2417.6,2445.5,2416.4,2447.9"/>
	<path d="M2416.4,2447.9c-3.4,7-60,13.2-86.2,11.6c-26.2-1.5-61.9-17.7-75.2-19.8s-11.4,9.9-14.7,10c-7.2,0.3-59-3.4-59-3.4
		s-7-13.6-11.6-35.6c-2.3-10.7-2.3-19.4-1.1-26.5c71.9,46.1,173.1,65.3,250.3,40.5C2420.4,2434.4,2417.6,2445.5,2416.4,2447.9"/>
</g>
<g id="Calque_2">
	<polygon class="st42" points="2774.2,320.4 2764.1,450.5 2762.8,450.2 2711.1,464.8 2711.1,464.8 2711.1,464.8 2658.5,449.9 
		2655.2,410.3 2680.6,410.3 2682.2,430.2 2711.1,438.3 2739.6,430.2 2742,397.4 2653.6,397.4 2651.7,372 2743.9,372 2745.8,346.1 
		2649.3,346.1 2647.4,320.6 2747.7,320.6 2747.7,320.5 	"/>
	<polygon class="st42" points="3175.6,490.7 3175.6,490.7 3175.6,490.7 	"/>
</g>
</svg>
