<?xml version="1.0" encoding="utf-8"?>
<!-- Generator: Adobe Illustrator 23.0.3, SVG Export Plug-In . SVG Version: 6.00 Build 0)  -->
<svg version="1.1" id="Calque_1" xmlns="http://www.w3.org/2000/svg" xmlns:xlink="http://www.w3.org/1999/xlink" x="0px" y="0px" viewBox="0 0 340 152.7" style="enable-background:new 0 0 340 152.7;" xml:space="preserve">
<g id="CENTRE">
	<path id="vitre_av_dr_h_1_" class="st0" d="M190.8,32.9l-41.6-2.4l-29-12.3c20.8-1.2,41.6-2.3,62.4-3.4L190.8,32.9z"/>
	<path id="vitre_milieu_dr_h_1_" class="st0" d="M256.2,15l-14.3,19.2l-51.1-1.3l-8.2-18C207.1,14.9,231.7,15,256.2,15z"/>
	<path id="vitre_ar_dr_h_1_" class="st0" d="M308.2,21.7l-27.9,12.5h-38.4L256.2,15c14.9,1.6,26.6,2.8,36,3.4 C292.8,18.5,299.8,18.9,308.2,21.7z"/>
	<path id="vitre_av_ga_h_1_" class="st0" d="M190.8,118.7l-8.2,18c-20.8-1.2-41.6-2.3-62.4-3.4l29-12.3L190.8,118.7z"/>
	<path id="vitre_milieu_ga_h_1_" class="st0" d="M256.2,136.6c-24.6,0.1-49.1,0.1-73.6,0.1l8.2-18l51.1-1.3L256.2,136.6z"/>
	<path id="vitre_ar_ga_h_1_" class="st0" d="M308.2,129.9c-8.5,2.8-15.5,3.2-16.1,3.3c-9.4,0.7-21.1,1.8-36,3.4l-14.3-19.2h38.4 L308.2,129.9z"/>
	<path id="coffre_h_1_" class="st0" d="M333.9,36.5v78.6c-0.1,1.6-0.3,3.9-1,6.6c0,0-2.1,7.1-7.9,12.1l-16.6-3.9 c3.9-1.3,6.9-2.6,9.8-5c2.5-2.1,4.2-4.3,5.1-5.9V32.6c-1-1.6-2.6-3.8-5.1-5.9c-2.9-2.4-5.9-3.8-9.8-5l16.6-3.9 c5.8,5.1,7.9,12.1,7.9,12.1C333.6,32.6,333.8,34.9,333.9,36.5z"/>
	<path id="vitre_ar_h_1_" class="st0" d="M323.2,32.6V119c-1,1.6-2.6,3.8-5.1,5.9l-23.7-11.2V37.9L318,26.7 C320.6,28.8,322.2,31.1,323.2,32.6z"/>
	<path id="toit_h_1_" class="st0" d="M294.3,113.7l23.7,11.2c-2.9,2.4-5.9,3.8-9.8,5l-27.9-12.5h-38.4l-51.1,1.3l-41.6,2.4l-29,12.3 c-2.4-0.6-6-1.8-9.9-4.2l37.8-11.7L146,75.8l2.1-41.6l-37.8-11.7c3.9-2.4,7.5-3.6,9.9-4.2l29,12.3l41.6,2.4l51.1,1.3h38.4 l27.9-12.5c3.9,1.3,6.9,2.6,9.8,5L294.3,38V113.7z"/>
	<path id="pare_brise_h_1_" class="st0" d="M146,75.8l2.1,41.6l-37.8,11.7c-15.2-9.4-19.2-27.6-20.9-35.3c-0.9-4.2-1.9-10.4-1.7-18 c-0.2-7.6,0.8-13.8,1.7-18c1.7-7.7,5.7-26,20.9-35.3l37.8,11.7L146,75.8z"/>
	<path id="coté_ga_h_1_" class="st0" d="M324.9,133.8c-6.4,5.6-14.5,6.2-19.8,6.6c-14.3,1-29.4,2.1-46.1,3.2H110.3v-14.5 c3.9,2.4,7.5,3.6,9.9,4.2c20.8,1.2,41.6,2.3,62.4,3.4c24.6-0.1,49.1-0.1,73.6-0.1c14.9-1.6,26.6-2.8,36-3.4 c0.5-0.1,7.6-0.5,16.1-3.3L324.9,133.8z"/>
	<path id="coté_dr_h_1_" class="st0" d="M324.9,17.8l-16.6,3.9c-8.5-2.8-15.5-3.2-16.1-3.3c-9.4-0.7-21.1-1.8-36-3.4 c-24.6-0.1-49.1-0.1-73.6-0.1c-20.8,1.2-41.6,2.3-62.4,3.4c-2.4,0.6-6,1.8-9.9,4.2V8.1H259c16.7,1,31.9,2.1,46.1,3.2 C310.4,11.6,318.5,12.2,324.9,17.8z"/>
	<path id="aile_ga_av_h_1_" class="st0" d="M110.3,129.1v14.5H55.6c-6-0.3-15.2-1.8-24.7-7.1c-1.7-1-3.9-2.2-6.2-3.8l54.1,1.3 L110.3,129.1z"/>
	<path id="aile_dr_av_h_1_" class="st0" d="M110.3,8.1v14.5l-31.5-4.9L24.7,19c2.3-1.6,4.4-2.8,6.2-3.8c9.6-5.3,18.7-6.8,24.7-7.1 L110.3,8.1L110.3,8.1z"/>
	<path id="capot_h_1_" class="st0" d="M110.3,129.1L78.8,134l-54.1-1.3c-3.6-2.5-7.5-6-10.9-11c-5.9-8.7-7.1-17.4-7.4-21.6 C6.3,92,6.2,83.9,6.1,75.8c0.1-8.1,0.2-16.2,0.2-24.3c0.3-4.2,1.4-12.9,7.4-21.6c3.4-5,7.4-8.5,10.9-11l54.1-1.3l31.5,4.9 C95.1,31.8,91.1,50,89.4,57.7c-0.9,4.2-1.9,10.4-1.7,18c-0.2,7.6,0.8,13.8,1.7,18C91.1,101.6,95.1,119.8,110.3,129.1z"/>
</g>
</svg>
