<?xml version="1.0" encoding="utf-8"?>
<!-- Generator: Adobe Illustrator 23.0.3, SVG Export Plug-In . SVG Version: 6.00 Build 0)  -->
<svg version="1.1" id="Calque_1" xmlns="http://www.w3.org/2000/svg" xmlns:xlink="http://www.w3.org/1999/xlink" x="0px" y="0px"
	 viewBox="0 0 340 120" style="enable-background:new 0 0 340 120;" xml:space="preserve">
<g id="HAUT">
	<path id="entre_vitre_av_dr" d="M186,78.4l-75-2.6c-1.7-1.9-3.2-3.8-4.4-5.3l78.7,2.4C185.6,75.4,186,78.4,186,78.4z"/>
	<path id="entre_vitre_ar_dr" d="M256.5,75.4v5.7L186,78.4c0,0-0.3-3-0.6-5.5L256.5,75.4z"/>
	<path id="vitre_av_dr" d="M190.3,108c-5.3,0.1-10.6,0.1-15.9,0.1c-8.1-0.7-20.6-2.9-34.4-9.8 C126.4,91.5,117,82.7,111,75.8l75,2.6C187.4,90.9,189.1,101,190.3,108z"/>
	<path id="vitre_centrale_dr" d="M256.5,81.1l-19.6,27.2c-15.5-0.1-31-0.2-46.5-0.3c-1.3-7.1-2.9-17.1-4.4-29.6 L256.5,81.1z"/>
	<path id="vitre_ar_dr" d="M295.1,83.2v6.7c-2.8,3.7-5.6,7.4-8.4,11.1c-0.9,1-2.4,2.5-4.6,3.7c-2,1-3.7,1.5-5,1.7 c-13.4,0.6-26.8,1.3-40.3,1.9l19.6-27.2L295.1,83.2z"/>
	<path id="vitre_coffre_dr" d="M325.1,84.5c-4.8,5.3-6.2,6-11.5,11.4c-5.4,5.6-5.3,6.3-8.5,8.6c-4.1,3-7.9,4.5-9.9,5.2 v-5.3l18.3-19.8H325.1L325.1,84.5z"/>
	<path id="bas_de_caisse_ar_dr" d="M333.3,35.4v8.2L292,42.5c0.8-2.2,1.4-4.6,1.6-7.2c0.3-4.4,0.5-8.8,0.8-13.2 c4.8-0.1,12.3,0.3,20.9,3.3C323.6,28.3,329.6,32.4,333.3,35.4z"/>
	<path id="phare_ar_dr_2_" d="M333.3,54.4v14.1c-0.3,2.4-1.1,5.7-3.2,9.3c-0.1,0.3-0.3,0.5-0.5,0.8h-15V76h-1.8 c0,0-0.1-8.6,0-14.4c0.1-5.7,2.9-7.2,2.9-7.2L333.3,54.4L333.3,54.4z"/>
	<path id="aile_ar_dr_2_" d="M312.9,61.7c-0.1,5.7,0,14.4,0,14.4h1.8v2.6h15c-0.8,1.4-2,3-4.6,5.8h-11.6l-18.3,19.8 V83.2l-38.7-2.1V59.1c2.9,1.1,6,1.8,9.1,1.8c11.8,0.3,22.4-7.3,26.4-18.4l41.3,1.1v10.8h-17.5C315.8,54.4,313.1,55.9,312.9,61.7z" />
	<path id="bas_de_caisse_dr" d="M256.5,59v16.3c0,0-24-28.2-26.2-46H106.9l0.1-7.3H239v14.6 C240.5,47,247.4,55.4,256.5,59z"/>
	<path id="porte_av_dr_2_" d="M185.3,72.9l-78.7-2.4l0.3-41.2H184C183.6,51.1,184.5,65,185.3,72.9z"/>
	<path id="porte_ar_dr_2_" d="M256.5,75.4L185.3,73c-0.8-7.9-1.8-21.9-1.4-43.5h46.3C232.4,47.2,256.5,75.4,256.5,75.4z "/>
	<path id="carro_toit_dr" d="M295.1,89.9v19.8c-4.2,1.4-7.9,1.8-10.4,1.9H165.9c-16.2-3-28.8-7.7-37.5-11.5 c-6.1-2.7-12.3-5.4-19.9-10.3c-7.6-4.9-8.4-6.7-14.1-9.5c-2.5-1.2-5.3-2.3-21.8-5.3c-9.3-1.7-8.5-1.4-26.8-4.6h60.8 c1.2,1.5,2.6,3.4,4.4,5.3c6,6.9,15.5,15.7,29.1,22.5c13.7,6.9,26.3,9.1,34.4,9.8c5.3-0.1,10.6-0.1,15.9-0.1 c15.5,0.1,31,0.2,46.5,0.3c13.4-0.6,26.8-1.3,40.3-1.9c1.3-0.2,3-0.7,5-1.7c2.2-1.2,3.7-2.6,4.6-3.7 C289.6,97.3,292.4,93.6,295.1,89.9z"/>
	<path id="aile_av_dr" d="M106.9,22l-0.1,7.3l-0.3,41.2H45.8c-7.9-1.4-9.5-1.7-12-2c-0.2-4-0.5-8-0.7-12 c-0.7-1.4-2.1-3.7-4.6-5.6c-4.1-3.3-8.5-3.7-10.2-3.8c-3.8-0.2-7.7-0.3-11.6-0.4c-0.1-1.9-0.1-3.4,0-4.6l40.8-0.5 c4.2,11.5,15.2,19,27.2,18.7c12.7-0.3,23.7-9.3,26.8-21.9c0-5.5-0.1-11-0.1-16.5C101.4,22,106.9,22,106.9,22z"/>
	<path id="phare_av_dr_2_" d="M33.8,68.5c-0.3-0.1-0.5-0.1-0.8-0.1c-6.8-0.8-8.1-0.5-11.4-1.5c-2-0.7-7.4-2.5-11.1-7.9 C7.3,54.4,7,49.4,6.7,46.8c3.9,0.1,7.7,0.3,11.6,0.4c1.7,0.1,6.1,0.5,10.2,3.8c2.5,2,3.8,4.2,4.6,5.6 C33.4,60.5,33.6,64.5,33.8,68.5z"/>
	<path id="bas_de_caisse_av_dr" d="M47.5,41.6L6.7,42.2v-4.8c0.6-2.2,1.8-5.6,4.7-8.5c2-1.9,4.9-3.8,14-5.3 c4.8-0.8,11.7-1.6,20.2-1.2C46.3,28.7,46.9,35.2,47.5,41.6z"/>
	<path id="pneu_ar_dr" d="M266,8.4c-13.5,0-24.5,11-24.5,24.5c0,13.6,11,24.5,24.5,24.5c13.6,0,24.5-11,24.5-24.5 C290.6,19.5,279.6,8.4,266,8.4z M266,49.6c-9.1,0-16.6-7.4-16.6-16.6c0-9.1,7.4-16.6,16.6-16.6c9.1,0,16.6,7.4,16.6,16.6 S275.2,49.6,266,49.6z"/>
	<path id="jante_ar_dr" d="M282.6,33c0,9.1-7.4,16.6-16.6,16.6c-9.1,0-16.6-7.4-16.6-16.6c0-9.1,7.4-16.6,16.6-16.6 C275.2,16.5,282.6,23.9,282.6,33z"/>
	<path id="pneu_ar_dr_1_" d="M74.1,8.3c-13.5,0-24.5,11-24.5,24.5c0,13.6,11,24.5,24.5,24.5c13.6,0,24.5-11,24.5-24.5 C98.7,19.3,87.7,8.3,74.1,8.3z M74.1,49.4c-9.1,0-16.6-7.4-16.6-16.6c0-9.1,7.4-16.6,16.6-16.6c9.1,0,16.6,7.4,16.6,16.6 S83.3,49.4,74.1,49.4z"/>
	<path id="jante_ar_dr_1_" d="M90.7,32.9c0,9.1-7.4,16.6-16.6,16.6c-9.1,0-16.6-7.4-16.6-16.6c0-9.1,7.4-16.6,16.6-16.6 C83.3,16.4,90.7,23.8,90.7,32.9z"/>
</g>
</svg>
