<?xml version="1.0" encoding="utf-8"?>
<!-- Generator: Adobe Illustrator 23.0.3, SVG Export Plug-In . SVG Version: 6.00 Build 0)  -->
<svg version="1.1" id="Calque_1" xmlns="http://www.w3.org/2000/svg" xmlns:xlink="http://www.w3.org/1999/xlink" x="0px" y="0px"
	 viewBox="0 0 340 120" style="enable-background:new 0 0 340 120;" xml:space="preserve">
<style type="text/css">
	.st0{fill:#FFFFFF;stroke:#1D1D1B;stroke-linecap:round;stroke-linejoin:round;stroke-miterlimit:10;}
</style>
<g id="BAS">
	<path id="entre_vitre_av_ga" class="st0" d="M186,41.4L111,44c-1.7,1.9-3.2,3.8-4.4,5.3l78.7-2.4C185.7,44.4,186,41.4,186,41.4z"/>
	<path id="entre_vitre_ar_ga" class="st0" d="M256.5,44.4v-5.7L186,41.4c0,0-0.3,3-0.6,5.5L256.5,44.4z"/>
	<path id="vitre_av_ga" class="st0" d="M190.4,11.8c-5.3-0.1-10.6-0.1-15.9-0.1c-8.1,0.7-20.6,2.9-34.3,9.8
		C126.5,28.3,117,37.1,111,44l75-2.6C187.4,28.9,189.1,18.8,190.4,11.8z"/>
	<path id="vitre_centrale_ga" class="st0" d="M256.5,38.7l-19.6-27.2c-15.5,0.1-31,0.2-46.5,0.3c-1.3,7.1-2.9,17.1-4.4,29.6
		L256.5,38.7z"/>
	<path id="vitre_ar_ga" class="st0" d="M295.1,36.6v-6.7c-2.8-3.7-5.6-7.4-8.4-11.1c-0.9-1-2.4-2.5-4.6-3.7c-1.9-1-3.7-1.5-5-1.7
		c-13.4-0.6-26.8-1.3-40.3-1.9l19.6,27.2L295.1,36.6z"/>
	<path id="vitre_coffre_ga" class="st0" d="M325.1,35.3c-4.8-5.3-6.2-6-11.5-11.4c-5.4-5.6-5.3-6.3-8.5-8.6c-4.1-3-7.9-4.5-9.9-5.2
		v5.3l18.3,19.8H325.1z"/>
	<path id="bas_de_caisse_ar_ga" class="st0" d="M333.3,84.4v-8.2L292,77.3c0.8,2.2,1.4,4.6,1.6,7.2c0.3,4.4,0.5,8.8,0.8,13.2
		c4.8,0.1,12.3-0.3,20.9-3.3C323.6,91.5,329.6,87.4,333.3,84.4z"/>
	<path id="phare_ar_ga" class="st0" d="M333.3,65.3V51.2c-0.3-2.4-1.1-5.7-3.2-9.3c-0.1-0.3-0.3-0.5-0.5-0.8h-15v2.6h-1.8
		c0,0-0.1,8.6,0,14.4c0.1,5.7,2.9,7.2,2.9,7.2L333.3,65.3L333.3,65.3z"/>
	<path id="aile_ar_ga" class="st0" d="M312.9,58.1c-0.1-5.7,0-14.4,0-14.4h1.8v-2.6h15c-0.8-1.4-2-3-4.6-5.8h-11.6l-18.3-19.8v21.2
		l-38.6,2.1v22.1c2.9-1.1,6-1.8,9.1-1.8c11.8-0.3,22.4,7.3,26.4,18.3l41.3-1.1V65.3h-17.5C315.8,65.3,313.1,63.9,312.9,58.1z"/>
	<path id="bas_de_caisse_ga" class="st0" d="M256.5,60.8V44.4c0,0-24,28.2-26.1,46H106.9l0.1,7.3H239V83.1
		C240.5,72.7,247.4,64.4,256.5,60.8z"/>
	<path id="porte_av_ga" class="st0" d="M185.4,46.9l-78.7,2.4l0.3,41.2H184C183.6,68.7,184.6,54.7,185.4,46.9z"/>
	<path id="porte_ar_ga" class="st0" d="M256.5,44.4l-71.1,2.4c-0.8,7.9-1.8,21.8-1.4,43.5h46.3C232.5,72.6,256.5,44.4,256.5,44.4z"
		/>
	<path id="carro_toit_ga" class="st0" d="M295.1,29.9V10.1c-4.2-1.4-7.9-1.8-10.4-1.9H165.9c-16.2,3-28.8,7.7-37.5,11.5
		c-6.1,2.7-12.3,5.4-19.9,10.3c-7.6,4.9-8.4,6.7-14.1,9.5c-2.5,1.2-5.3,2.3-21.8,5.3c-9.3,1.7-8.5,1.4-26.8,4.6h60.8
		c1.2-1.5,2.6-3.4,4.4-5.3c6-6.9,15.5-15.7,29.1-22.5c13.7-6.9,26.3-9.1,34.3-9.8c5.3,0.1,10.6,0.1,15.9,0.1
		c15.5-0.1,31-0.2,46.5-0.3c13.4,0.6,26.8,1.3,40.3,1.9c1.3,0.2,3,0.7,5,1.7c2.2,1.2,3.7,2.6,4.6,3.7
		C289.6,22.5,292.4,26.2,295.1,29.9z"/>
	<path id="aile_av_ga" class="st0" d="M107,97.7l-0.1-7.3l-0.3-41.2H45.9c-7.9,1.4-9.5,1.7-12,2c-0.2,4-0.5,8-0.7,12
		c-0.7,1.4-2.1,3.7-4.6,5.6c-4.1,3.3-8.5,3.7-10.2,3.8c-3.9,0.1-7.7,0.3-11.6,0.4c-0.1,1.9-0.1,3.4,0,4.6l40.8,0.5
		c4.2-11.5,15.2-19,27.2-18.7c12.7,0.3,23.7,9.3,26.8,21.8c0,5.5-0.1,11-0.1,16.5L107,97.7L107,97.7z"/>
	<path id="phare_av_ga" class="st0" d="M33.9,51.2c-0.3,0.1-0.5,0.1-0.8,0.1c-6.8,0.8-8.1,0.5-11.4,1.5c-2,0.7-7.4,2.5-11.1,7.9
		C7.4,65.3,7,70.3,6.8,73c3.9-0.1,7.7-0.3,11.6-0.4c1.7-0.1,6.1-0.5,10.2-3.8c2.5-1.9,3.8-4.2,4.6-5.6
		C33.4,59.3,33.6,55.2,33.9,51.2z"/>
	<path id="bas_de_caisse_av_ga" class="st0" d="M47.6,78.1L6.8,77.6v4.8c0.6,2.2,1.8,5.6,4.7,8.5c1.9,1.9,4.9,3.8,14,5.3
		c4.8,0.8,11.7,1.6,20.2,1.2C46.3,91,46.9,84.6,47.6,78.1z"/>
	<path id="pneu_ar_ga" class="st0" d="M290.6,86.7c0-13.6-11-24.5-24.5-24.5c-13.5,0-24.5,11-24.5,24.5c0,13.6,11,24.5,24.5,24.5
		C279.6,111.3,290.6,100.3,290.6,86.7z M282.6,86.7c0,9.1-7.4,16.6-16.6,16.6c-9.1,0-16.6-7.4-16.6-16.6c0-9.1,7.4-16.6,16.6-16.6
		C275.2,70.2,282.6,77.6,282.6,86.7z"/>
	<path id="jante_ar_ga" class="st0" d="M282.6,86.7c0-9.1-7.4-16.6-16.6-16.6c-9.1,0-16.6,7.4-16.6,16.6c0,9.1,7.4,16.6,16.6,16.6
		C275.2,103.3,282.6,95.9,282.6,86.7z"/>
	<path id="pneu_ar_ga_1_" class="st0" d="M98.7,86.7c0-13.6-11-24.5-24.5-24.5s-24.5,11-24.5,24.5c0,13.6,11,24.5,24.5,24.5
		C87.7,111.3,98.7,100.3,98.7,86.7z M90.6,86.7c0,9.1-7.4,16.6-16.6,16.6c-9.1,0-16.6-7.4-16.6-16.6c0-9.1,7.4-16.6,16.6-16.6
		C83.2,70.2,90.6,77.6,90.6,86.7z"/>
	<path id="jante_ar_ga_1_" class="st0" d="M90.6,86.7c0-9.1-7.4-16.6-16.6-16.6c-9.1,0-16.6,7.4-16.6,16.6c0,9.1,7.4,16.6,16.6,16.6
		S90.6,95.9,90.6,86.7z"/>
</g>
</svg>
